<?xml version="1.0" encoding="UTF-8" standalone="no"?>
<svg
   xmlns:dc="http://purl.org/dc/elements/1.1/"
   xmlns:cc="http://creativecommons.org/ns#"
   xmlns:rdf="http://www.w3.org/1999/02/22-rdf-syntax-ns#"
   xmlns:svg="http://www.w3.org/2000/svg"
   xmlns="http://www.w3.org/2000/svg"
   xmlns:sodipodi="http://sodipodi.sourceforge.net/DTD/sodipodi-0.dtd"
   xmlns:inkscape="http://www.inkscape.org/namespaces/inkscape"
   height="32"
   width="32"
   version="1.1"
   id="svg"
   viewBox="0 0 32 32"
   inkscape:version="1.0.1 (3bc2e813f5, 2020-09-07)"
   sodipodi:docname="document.svg">
  <sodipodi:namedview
     pagecolor="#c8c8c8"
     bordercolor="#666666"
     borderopacity="1"
     objecttolerance="10"
     gridtolerance="10"
     guidetolerance="10"
     inkscape:pageopacity="0"
     inkscape:pageshadow="2"
     inkscape:window-width="1912"
     inkscape:window-height="955"
     id="namedview20"
     showgrid="false"
     inkscape:zoom="8.7407407"
     inkscape:cx="25.240934"
     inkscape:cy="30.63826"
     inkscape:window-x="0"
     inkscape:window-y="36"
     inkscape:window-maximized="0"
     inkscape:current-layer="svg"
     inkscape:document-rotation="0" />
  <metadata
     id="metadata23">
    <rdf:RDF>
      <cc:Work
         rdf:about="">
        <dc:format>image/svg+xml</dc:format>
        <dc:type
           rdf:resource="http://purl.org/dc/dcmitype/StillImage" />
        <dc:title></dc:title>
      </cc:Work>
    </rdf:RDF>
  </metadata>
  <defs
     id="defs81">
    <style
       type="text/css"
       id="current-color-scheme">
      .ColorScheme-Text {
        color:#31363b;
      }
      .ColorScheme-Background {
        color:#eff0f1;
      }
      .ColorScheme-Highlight {
        color:#3daee9;
      }
      .ColorScheme-ViewText {
        color:#31363b;
      }
      .ColorScheme-ViewBackground {
        color:#fcfcfc;
      }
      .ColorScheme-ViewHover {
        color:#93cee9;
      }
      .ColorScheme-ViewFocus{
        color:#3daee9;
      }
      .ColorScheme-ButtonText {
        color:#31363b;
      }
      .ColorScheme-ButtonBackground {
        color:#eff0f1;
      }
      .ColorScheme-ButtonHover {
        color:#93cee9;
      }
      .ColorScheme-ButtonFocus{
        color:#3daee9;
      }
      .ColorScheme-NegativeText {
        color:#da4453;
      }
  </style>
  </defs>
  <g
     transform="translate(22,-22)"
     id="document-decrypt">
    <rect
       id="rect6"
       y="1.9496329e-13"
       x="5.0495145e-15"
       height="22"
       width="22"
       style="opacity:1;fill:none" />
    <path
       id="path8"
       d="M 11,3 C 8.784,3 7,4.784 7,7 V 8 H 8 V 7.5 C 7.999985,5.561 9.338,4 11,4 c 1.662,0 3,1.561 3,3.5 V 11 H 12 8 7 5 v 2 6 h 1 10 1 V 11 H 16 15 V 7 C 15,4.784 13.216,3 11,3 Z"
       style="color:#31363b;opacity:1;fill:#323232;fill-opacity:1"
       class="ColorScheme-Text"
       inkscape:connector-curvature="0" />
  </g>
  <g
     id="document-encrypt"
     transform="translate(0,-22)">
    <rect
       id="rect11"
       width="22"
       height="22"
       x="5.0495145e-15"
       y="1.9496329e-13"
       style="opacity:1;fill:none" />
    <path
       id="path13"
       transform="translate(0,-54)"
       d="m 11,57 c -2.216,0 -4,1.784 -4,4 v 4 H 5 v 2 6 h 1 10 1 v -8 h -1 -1 v -4 c 0,-2.216 -1.784,-4 -4,-4 z m 0,1 c 1.662,0 3,1.561 3,3.5 V 65 H 12.662109 12.638669 8 V 61.5 C 8,59.561 9.338,58 11,58 Z"
       style="color:#31363b;opacity:1;fill:#323232;fill-opacity:1"
       class="ColorScheme-Text"
       inkscape:connector-curvature="0" />
  </g>
  <g
     transform="translate(0,10)"
     id="g8125">
    <rect
       class="ColorScheme-Text"
       y="0"
       x="0"
       height="22"
       width="22"
       id="rect3802"
       style="color:#31363b;opacity:1;fill:none" />
  </g>
  <g
     transform="translate(5,5)"
     id="document-open-recent">
    <path
       id="path14"
       d="M 0,-3 V 25 H 10 V 24 H 1 V -2 h 20 v 15 h 1 V -3 Z m 16,16 a 6,6 0 0 0 -6,6 6,6 0 0 0 6,6 6,6 0 0 0 6,-6 6,6 0 0 0 -6,-6 z m 0,1 a 5,5 0 0 1 5,5 5,5 0 0 1 -5,5 5,5 0 0 1 -5,-5 5,5 0 0 1 5,-5 z m -1,1 v 5 h 1 3 v -1 h -3 v -4 z"
       style="color:#31363b;opacity:1;fill:#323232;fill-opacity:1"
       class="ColorScheme-Text"
       inkscape:connector-curvature="0" />
    <rect
       id="rect23"
       width="32"
       height="32"
       x="-5"
       y="-5"
       style="opacity:1;fill:none" />
  </g>
  <g
     transform="matrix(0.6875,0,0,0.6875,-29.568806,13.4375)"
     id="22-22-document-open-recent">
    <rect
       id="rect23-7"
       width="32"
       height="32"
       x="-5"
       y="-5"
       style="opacity:1;fill:none" />
    <path
       id="path19"
       d="M 0.81818182,-0.63636364 V 22.636364 H 2.2727273 9.5454545 V 21.181818 H 2.2727273 V 0.81818236 H 19.727273 V 11 h 1.454545 V -0.63636364 H 19.727273 2.2727273 Z M 15.363636,11 c -3.223265,0 -5.8181815,2.594916 -5.8181815,5.818182 0,3.223265 2.5949165,5.818182 5.8181815,5.818182 3.223266,0 5.818182,-2.594917 5.818182,-5.818182 C 21.181818,13.594916 18.586902,11 15.363636,11 Z m 0,1.454546 c 2.417448,0 4.363637,1.946189 4.363637,4.363636 0,2.417447 -1.946189,4.363636 -4.363637,4.363636 C 12.946189,21.181818 11,19.235629 11,16.818182 c 0,-2.417447 1.946189,-4.363636 4.363636,-4.363636 z m -1.454545,1.454545 v 2.909091 1.454545 h 1.454545 1.454546 v -1.454545 h -1.454546 v -2.909091 z"
       style="color:#31363b;opacity:1;fill:#323232;fill-opacity:1"
       class="ColorScheme-Text"
       inkscape:connector-curvature="0" />
  </g>
</svg>
