<?xml version="1.0" encoding="UTF-8" standalone="no"?>
<svg
   xmlns:dc="http://purl.org/dc/elements/1.1/"
   xmlns:cc="http://creativecommons.org/ns#"
   xmlns:rdf="http://www.w3.org/1999/02/22-rdf-syntax-ns#"
   xmlns:svg="http://www.w3.org/2000/svg"
   xmlns="http://www.w3.org/2000/svg"
   xmlns:sodipodi="http://sodipodi.sourceforge.net/DTD/sodipodi-0.dtd"
   xmlns:inkscape="http://www.inkscape.org/namespaces/inkscape"
   version="1.1"
   id="svg2"
   viewBox="0 0 54 32"
   inkscape:version="0.92.5 (2060ec1f9f, 2020-04-08)"
   sodipodi:docname="drive.svg">
  <sodipodi:namedview
     pagecolor="#ffffff"
     bordercolor="#666666"
     borderopacity="1"
     objecttolerance="10"
     gridtolerance="10"
     guidetolerance="10"
     inkscape:pageopacity="0"
     inkscape:pageshadow="2"
     inkscape:window-width="1920"
     inkscape:window-height="1059"
     id="namedview15"
     showgrid="false"
     inkscape:zoom="5.1945418"
     inkscape:cx="-34.653492"
     inkscape:cy="7.2826025"
     inkscape:window-x="0"
     inkscape:window-y="21"
     inkscape:window-maximized="1"
     inkscape:current-layer="svg2" />
  <metadata
     id="metadata21">
    <rdf:RDF>
      <cc:Work
         rdf:about="">
        <dc:format>image/svg+xml</dc:format>
        <dc:type
           rdf:resource="http://purl.org/dc/dcmitype/StillImage" />
        <dc:title></dc:title>
      </cc:Work>
    </rdf:RDF>
  </metadata>
  <defs
     id="defs3051">
    <style
       id="current-color-scheme"
       type="text/css">
      .ColorScheme-Text {
        color:#31363b;
      }
      </style>
  </defs>
  <g
     id="16-16-drive"
     transform="translate(-4.5187042,-2.3278173)">
    <path
       id="path17"
       d="M -14.846524,16 V 32 H 1.1534756 V 16 Z"
       style="opacity:1;fill:none"
       inkscape:connector-curvature="0" />
    <g
       transform="translate(-7.6681044,-11.97098)"
       id="g851">
      <g
         transform="translate(-449.17842,-148.02902)"
         id="g14">
        <g
           style="fill:#333333;fill-rule:evenodd"
           id="g12">
          <path
             inkscape:connector-curvature="0"
             d="m 446,176 c -1.108,0 -1.8626,0.90056 -2,2 l -1,8 v 4 c 0,1.108 0.892,2 2,2 h 10 c 1.108,0 2,-0.892 2,-2 v -4 l -1,-8 c -0.13743,-1.0994 -0.892,-2 -2,-2 z m 0,1 h 8 c 0.554,0 0.93128,0.45028 1,1 l 1,8 v 4 c 0,0.554 -0.446,1 -1,1 h -10 c -0.554,0 -1,-0.446 -1,-1 v -4 l 1,-8 c 0.0687,-0.54972 0.446,-1 1,-1 z"
             style="paint-order:fill markers stroke"
             id="path6" />
          <path
             inkscape:connector-curvature="0"
             d="m 444,186 -0.1355,1 c -0.0744,0.54898 0.45608,1 1.0226,1 h 10.226 c 0.56651,0 1.097,-0.45102 1.0226,-1 l -0.13549,-1 c 0,0.554 -0.32058,1 -0.88709,1 h -10.226 c -0.56651,0 -0.88709,-0.446 -0.88709,-1 z"
             style="paint-order:fill markers stroke"
             id="path8" />
          <rect
             x="454"
             y="189"
             width="1"
             height="1"
             style="paint-order:fill markers stroke"
             id="rect10" />
        </g>
      </g>
      <path
         inkscape:connector-curvature="0"
         d="m -1.2984174,29.967983 -1.415,1.315 0.707,0.657 1.41399999,-1.314 z m 4.241,0 -0.707,0.658 1.414,1.314 0.707,-0.657 z m -2.12000001,1.428 c -1.1,0 -1.99999999,0.837 -1.99999999,1.857 0,1.02 0.89999999,1.858 1.99999999,1.858 1.09800001,0 2.00000001,-0.838 2.00000001,-1.858 0,-1.02 -0.902,-1.857 -2.00000001,-1.857 z m 0,0.928 c 0.55700001,0 1.00000001,0.41 1.00000001,0.93 0,0.517 -0.443,0.928 -1.00000001,0.928 -0.559,0 -1,-0.41 -1,-0.929 0,-0.518 0.441,-0.929 1,-0.929 z m -1,3.715 v 0.929 H 1.8225826 v -0.929 z"
         font-weight="400"
         overflow="visible"
         style="color:#000000;font-weight:400;font-variant-ligatures:normal;font-variant-position:normal;font-variant-caps:normal;font-variant-numeric:normal;font-variant-alternates:normal;font-feature-settings:normal;text-indent:0;text-decoration:none;text-decoration-line:none;text-decoration-style:solid;text-decoration-color:#000000;text-transform:none;text-orientation:mixed;white-space:normal;shape-padding:0;overflow:visible;isolation:auto;mix-blend-mode:normal;fill:#333333"
         id="path16" />
    </g>
  </g>
  <g
     id="22-22-drive">
    <path
       id="path9"
       d="M 0,10 V 32 H 22 V 10 Z"
       style="opacity:1;fill:none"
       inkscape:connector-curvature="0" />
    <g
       id="g881"
       transform="translate(10.17842,-14.97098)">
      <g
         id="g877"
         transform="translate(-449.17842,-148.02902)">
        <g
           id="g875"
           style="fill:#333333;fill-rule:evenodd">
          <path
             id="path869"
             style="paint-order:fill markers stroke"
             d="m 446,176 c -1.108,0 -1.8626,0.90056 -2,2 l -1,8 v 4 c 0,1.108 0.892,2 2,2 h 10 c 1.108,0 2,-0.892 2,-2 v -4 l -1,-8 c -0.13743,-1.0994 -0.892,-2 -2,-2 z m 0,1 h 8 c 0.554,0 0.93128,0.45028 1,1 l 1,8 v 4 c 0,0.554 -0.446,1 -1,1 h -10 c -0.554,0 -1,-0.446 -1,-1 v -4 l 1,-8 c 0.0687,-0.54972 0.446,-1 1,-1 z"
             inkscape:connector-curvature="0" />
          <path
             id="path871"
             style="paint-order:fill markers stroke"
             d="m 444,186 -0.1355,1 c -0.0744,0.54898 0.45608,1 1.0226,1 h 10.226 c 0.56651,0 1.097,-0.45102 1.0226,-1 l -0.13549,-1 c 0,0.554 -0.32058,1 -0.88709,1 h -10.226 c -0.56651,0 -0.88709,-0.446 -0.88709,-1 z"
             inkscape:connector-curvature="0" />
          <rect
             id="rect873"
             style="paint-order:fill markers stroke"
             height="1"
             width="1"
             y="189"
             x="454" />
        </g>
      </g>
      <path
         id="path879"
         style="color:#000000;font-weight:400;font-variant-ligatures:normal;font-variant-position:normal;font-variant-caps:normal;font-variant-numeric:normal;font-variant-alternates:normal;font-feature-settings:normal;text-indent:0;text-decoration:none;text-decoration-line:none;text-decoration-style:solid;text-decoration-color:#000000;text-transform:none;text-orientation:mixed;white-space:normal;shape-padding:0;overflow:visible;isolation:auto;mix-blend-mode:normal;fill:#333333"
         overflow="visible"
         font-weight="400"
         d="m -1.2984174,29.967983 -1.415,1.315 0.707,0.657 1.41399999,-1.314 z m 4.241,0 -0.707,0.658 1.414,1.314 0.707,-0.657 z m -2.12000001,1.428 c -1.1,0 -1.99999999,0.837 -1.99999999,1.857 0,1.02 0.89999999,1.858 1.99999999,1.858 1.09800001,0 2.00000001,-0.838 2.00000001,-1.858 0,-1.02 -0.902,-1.857 -2.00000001,-1.857 z m 0,0.928 c 0.55700001,0 1.00000001,0.41 1.00000001,0.93 0,0.517 -0.443,0.928 -1.00000001,0.928 -0.559,0 -1,-0.41 -1,-0.929 0,-0.518 0.441,-0.929 1,-0.929 z m -1,3.715 v 0.929 H 1.8225826 v -0.929 z"
         inkscape:connector-curvature="0" />
    </g>
  </g>
  <g
     style="clip-rule:evenodd;fill-rule:evenodd;stroke-linejoin:round;stroke-miterlimit:1.41420996"
     id="drive"
     transform="translate(22)">
    <path
       style="fill:#202020"
       d="M 9,5 C 8,5 8,6 8,6 L 6,22 v 5.041016 c 0,1 0,1 1,1 h 18.052734 c 1,0 1,0 1,-1 V 22 L 25,6 c 0,0 0,-1 -1,-1 z m 0,1 h 15 l 1.052734,16 H 7 Z M 7,23 h 18.052734 v 4.041016 H 7 Z m 15,1 v 2 h 2 v -2 z"
       transform="translate(0,-2e-5)"
       id="path2"
       inkscape:connector-curvature="0"
       sodipodi:nodetypes="sccssssccssccccccccccccccc" />
    <rect
       y="0"
       x="0"
       height="32"
       width="32"
       id="rect817"
       style="fill:#ffffff;fill-opacity:0;stroke-width:0.86188805" />
  </g>
</svg>
