<?xml version="1.0" encoding="UTF-8" standalone="no"?>
<svg
   xmlns:dc="http://purl.org/dc/elements/1.1/"
   xmlns:cc="http://creativecommons.org/ns#"
   xmlns:rdf="http://www.w3.org/1999/02/22-rdf-syntax-ns#"
   xmlns:svg="http://www.w3.org/2000/svg"
   xmlns="http://www.w3.org/2000/svg"
   viewBox="0 0 32 32"
   version="1.1"
   id="svg3869"
   height="32"
   width="32">
  <defs
     id="defs3871">
    <style
       id="current-color-scheme"
       type="text/css">
      .ColorScheme-Text {
        color:#31363b;
      }
      .ColorScheme-Background {
        color:#eff0f1;
      }
      .ColorScheme-Highlight {
        color:#3daee9;
      }
      .ColorScheme-ViewText {
        color:#31363b;
      }
      .ColorScheme-ViewBackground {
        color:#fcfcfc;
      }
      .ColorScheme-ViewHover {
        color:#93cee9;
      }
      .ColorScheme-ViewFocus{
        color:#3daee9;
      }
      .ColorScheme-ButtonText {
        color:#31363b;
      }
      .ColorScheme-ButtonBackground {
        color:#eff0f1;
      }
      .ColorScheme-ButtonHover {
        color:#93cee9;
      }
      .ColorScheme-ButtonFocus{
        color:#3daee9;
      }
      </style>
  </defs>
  <metadata
     id="metadata3874">
    <rdf:RDF>
      <cc:Work
         rdf:about="">
        <dc:format>image/svg+xml</dc:format>
        <dc:type
           rdf:resource="http://purl.org/dc/dcmitype/StillImage" />
        <dc:title></dc:title>
      </cc:Work>
    </rdf:RDF>
  </metadata>
  <g
     transform="translate(-321,-529.36218)"
     id="layer1">
    <g
       id="kdeconnect">
      <path
         class="ColorScheme-Text"
         id="rect4403-3-53"
         transform="translate(321,529.36218)"
         d="m 16.75,10 -1.5,0.002 -0.414062,1.658203 c -5.99e-4,1.6e-4 -0.0014,-1.59e-4 -0.002,0 -0.189105,0.05039 -0.373889,0.112636 -0.554687,0.1875 -0.180768,0.07451 -0.357445,0.162155 -0.527344,0.259766 l -1.464844,-0.88086 -1.058593,1.0625 0.878906,1.462891 c -0.19707,0.34009 -0.348772,0.704495 -0.451172,1.083985 L 10,15.25 v 1.5 l 1.662109,0.416016 c 0.10079,0.37821 0.250483,0.740608 0.445313,1.080078 l -0.878906,1.464844 1.058593,1.0625 1.464844,-0.88086 c 0.0013,7.31e-4 0.0026,0.0012 0.0039,0.002 0.0013,7.29e-4 0.0026,0.0012 0.0039,0.002 0.337943,0.194949 0.70146,0.345606 1.078125,0.447266 L 15.25,22 v 0.002 L 16,22 h 0.75 v -0.002 l 0.416016,-1.658203 c 0.378327,-0.101119 0.742531,-0.250102 1.082031,-0.445313 l 1.464844,0.878907 1.060547,-1.060547 -0.002,-0.002 -0.878906,-1.464844 c 2.93e-4,-5.06e-4 -2.93e-4,-0.0014 0,-0.002 0.196353,-0.339112 0.348941,-0.701796 0.451172,-1.080079 1.61e-4,-5.96e-4 -1.61e-4,-0.0014 0,-0.002 L 21.998047,16.75 l 0.0039,-1.5 -1.660156,-0.412109 C 20.240677,14.458061 20.088488,14.09075 19.892578,13.75 l 0.88086,-1.460938 -1.060547,-1.060546 -1.46875,0.878906 c -0.3387,-0.19617 -0.702268,-0.346919 -1.080079,-0.449219 z m -0.703125,3.001953 c 0.0989,10e-4 0.198455,0.0082 0.296875,0.01953 0.10013,0.0116 0.198315,0.02723 0.296875,0.04883 0.0978,0.0213 0.195676,0.04713 0.291016,0.07813 0.0943,0.0312 0.186573,0.06702 0.277343,0.107421 0.0917,0.0397 0.182212,0.08401 0.269532,0.132813 0.0869,0.0496 0.170433,0.102106 0.251953,0.160156 0.0819,0.0583 0.160718,0.12151 0.236328,0.1875 0.0325,0.0269 0.0645,0.05568 0.0957,0.08398 l 0.144531,0.144532 c 0.0414,0.0429 0.08253,0.08526 0.121094,0.130859 0.0639,0.0766 0.122414,0.159158 0.177734,0.242188 0.0557,0.0842 0.105664,0.172198 0.152344,0.261718 0.0464,0.0885 0.0893,0.177022 0.126953,0.269532 0.0378,0.0922 0.07111,0.187723 0.09961,0.283203 0.0274,0.0962 0.05036,0.192605 0.06836,0.291015 0.0187,0.0986 0.03222,0.198759 0.04102,0.298829 0.004,0.0601 0.0078,0.119497 0.0078,0.179687 L 19,16.109375 c -0.002,0.0768 -0.0059,0.152066 -0.01367,0.228516 -0.0117,0.10019 -0.02733,0.200268 -0.04883,0.298828 -0.0213,0.0979 -0.04898,0.195675 -0.08008,0.291015 -0.02648,0.08021 -0.05846,0.156923 -0.0918,0.234375 h -0.002 c -0.001,0.0025 -8.7e-4,0.0054 -0.002,0.0078 -0.0384,0.0919 -0.08154,0.181881 -0.128907,0.269531 -0.0486,0.0874 -0.101303,0.171656 -0.158203,0.253906 -0.05528,0.08106 -0.114929,0.159043 -0.177734,0.234375 -0.0015,0.0018 -0.0024,0.0041 -0.0039,0.0059 -5.92e-4,6.94e-4 -0.0014,0.0013 -0.002,0.002 -0.0618,0.07305 -0.12684,0.14408 -0.195313,0.210937 -0.0026,0.0026 -0.0052,0.0053 -0.0078,0.0078 -0.0086,0.0084 -0.0187,0.01516 -0.02734,0.02344 -0.063,0.05969 -0.127279,0.117642 -0.195313,0.171875 -0.07206,0.0571 -0.147567,0.109825 -0.224609,0.160157 -0.06389,0.04134 -0.128359,0.08098 -0.195313,0.117187 -0.01388,0.0075 -0.02702,0.01614 -0.04102,0.02344 -0.0018,9.52e-4 -0.0041,0.001 -0.0059,0.002 -0.05744,0.03013 -0.116703,0.05738 -0.175782,0.08398 -0.04154,0.01797 -0.08286,0.0364 -0.125,0.05273 -0.0041,0.0016 -0.0077,0.0043 -0.01172,0.0059 -0.07724,0.03017 -0.154921,0.0584 -0.234376,0.08203 -0.0037,0.0011 -0.008,8.25e-4 -0.01172,0.002 -0.09256,0.02604 -0.186719,0.04921 -0.28125,0.06641 -0.0988,0.0187 -0.198788,0.03222 -0.298828,0.04102 -0.0999,0.008 -0.198589,0.01107 -0.298828,0.0098 -0.0989,-10e-4 -0.198446,-0.0066 -0.296876,-0.01758 -0.10012,-0.0116 -0.200278,-0.02723 -0.298828,-0.04883 -0.0979,-0.0214 -0.193742,-0.04898 -0.289062,-0.08008 -0.0671,-0.0222 -0.131926,-0.04917 -0.197266,-0.07617 l -0.0098,0.0098 c -0.0128,-0.0052 -0.02633,-0.0083 -0.03906,-0.01367 -0.0919,-0.0385 -0.181861,-0.08155 -0.269531,-0.128906 -0.0874,-0.0486 -0.171636,-0.101313 -0.253906,-0.158203 -0.083,-0.0565 -0.163235,-0.117131 -0.240235,-0.181641 -0.0452,-0.0398 -0.09007,-0.08067 -0.132812,-0.123047 l -0.13086,-0.132812 c -0.0529,-0.0557 -0.103813,-0.112295 -0.152343,-0.171875 -0.0626,-0.0791 -0.121332,-0.161164 -0.175782,-0.246094 -0.0541,-0.0843 -0.10495,-0.172329 -0.15039,-0.261719 -0.0446,-0.0886 -0.08359,-0.178704 -0.119141,-0.271484 -0.0367,-0.093 -0.07006,-0.188866 -0.09766,-0.285156 -0.0264,-0.0964 -0.04785,-0.194309 -0.06445,-0.292969 -0.0167,-0.0991 -0.02846,-0.198698 -0.03516,-0.298828 C 13.001865,16.146702 13,16.076249 13,16.005859 c -9e-5,-0.0998 0.0027,-0.199528 0.01367,-0.298828 0.0106,-0.0994 0.02532,-0.197072 0.04492,-0.294922 0.0202,-0.0989 0.04587,-0.196638 0.07617,-0.292968 0.0295,-0.0953 0.06278,-0.18927 0.101562,-0.28125 0.0385,-0.0919 0.08154,-0.181882 0.128906,-0.269532 0.0486,-0.0874 0.101272,-0.173609 0.158204,-0.255859 0.0566,-0.0831 0.11715,-0.163244 0.18164,-0.240234 0.0647,-0.0766 0.133058,-0.14901 0.205078,-0.21875 0.0709,-0.069 0.145218,-0.135516 0.222656,-0.197266 0.079,-0.0626 0.161154,-0.121351 0.246094,-0.175781 0.0843,-0.0541 0.172349,-0.102998 0.261719,-0.148438 0.06314,-0.03175 0.128097,-0.05879 0.193359,-0.08594 v -0.05469 l 0.0332,0.0332 c 0.002,-10e-4 0.0048,-0.0029 0.0078,-0.0039 0.0921,-0.0378 0.18578,-0.07111 0.28125,-0.09961 0.0962,-0.0274 0.192616,-0.04851 0.291016,-0.06641 0.0987,-0.0187 0.198788,-0.03417 0.298828,-0.04297 0.0999,-0.008 0.200541,-0.01147 0.300781,-0.0098 z"
         style="opacity:1;fill:currentColor;fill-opacity:1;stroke:none;stroke-width:0.14999989;stroke-linecap:square;stroke-linejoin:miter;stroke-miterlimit:4;stroke-dasharray:none;stroke-dashoffset:0;stroke-opacity:1" />
      <rect
         style="opacity:1;fill:none;fill-opacity:1;stroke:none;stroke-width:0.1;stroke-linecap:square;stroke-linejoin:miter;stroke-miterlimit:4;stroke-dasharray:none;stroke-dashoffset:0;stroke-opacity:1"
         id="rect4436"
         width="32"
         height="32"
         x="321"
         y="529.36218" />
      <path
         class="ColorScheme-Text"
         id="path4241"
         transform="translate(321,529.36218)"
         d="M 8,3.0000174 V 26 v 1 2.000017 c 0,0 0,0.999986 1,0.999986 h 14 c 1,0 1,-0.999986 1,-0.999986 V 3.0000174 c 0,-1 -1,-1 -1,-1 L 9,2.000003 c 0,0 -1,1.44e-5 -1,1.0000144 z M 9,3 h 1 12 1 V 28.000017 H 22 10 9 Z m 3,1.0000174 v 1 h 8 v -1 z"
         style="opacity:1;fill:currentColor;fill-opacity:1;stroke:none" />
    </g>
    <g
       id="16-16-kdeconnect">
      <path
         class="ColorScheme-Text"
         id="rect4403-3-2-9-7-3-6"
         transform="translate(321,529.36218)"
         d="m -8.5,14 -0.2773438,1.105469 C -8.854174,15.12628 -8.9255611,15.161625 -9,15.189453 v -0.0059 c -0.036329,0.01282 -0.069472,0.03313 -0.1054688,0.04687 -0.056043,0.02331 -0.1150872,0.03849 -0.1699218,0.06445 -0.004,0.002 -0.00762,0.0039 -0.011719,0.0059 -0.065404,0.03136 -0.1300327,0.0603 -0.1933594,0.0957 -0.00508,0.0029 -0.010562,0.0049 -0.015625,0.0078 l -0.9785152,-0.585938 -0.707032,0.707032 0.583985,0.974609 c -0.06532,0.11358 -0.122053,0.23069 -0.171875,0.351562 -2.25e-4,5.39e-4 2.24e-4,0.0014 0,0.002 -0.0125,0.03037 -0.01976,0.06298 -0.03125,0.09375 -0.03459,0.09149 -0.07017,0.182719 -0.0957,0.277343 L -12,17.5 v 1 l 1.105469,0.277344 h 0.002 c 0.0022,0.0079 0.0056,0.01552 0.0078,0.02344 0.01946,0.06738 0.04307,0.133042 0.06641,0.199219 0.0014,0.0039 0.0025,0.0079 0.0039,0.01172 0.01923,0.05383 0.04868,0.103315 0.07031,0.15625 0.01698,0.03821 0.02688,0.07948 0.04492,0.117187 l 0.0059,-0.0059 c 0.03312,0.07276 0.0578,0.149307 0.09766,0.21875 l -0.585938,0.976562 0.707032,0.707032 0.9765621,-0.585938 c 0.2261859,0.131081 0.4683564,0.232518 0.7207031,0.300781 l 0.2753907,1.101563 H -8.5 V 22 h 1 l 0.2753906,-1.103516 h 0.00195 c 0.2523467,-0.06826 0.4945172,-0.1697 0.7207031,-0.300781 l 0.9765625,0.585938 0.7070312,-0.707032 -0.00195,-0.002 -0.390625,-0.652344 -0.1933594,-0.322265 c 0.013097,-0.02282 0.018934,-0.04904 0.03125,-0.07227 0.023936,-0.04706 0.049397,-0.09285 0.072266,-0.140625 0.002,-0.004 0.00386,-0.0077 0.00586,-0.01172 0.018445,-0.03897 0.027749,-0.08152 0.044922,-0.121094 0.0193,-0.04789 0.047094,-0.09203 0.064453,-0.140625 0.00138,-0.0039 0.00253,-0.0078 0.00391,-0.01172 0.023126,-0.06559 0.047029,-0.130521 0.066406,-0.197266 0.00247,-0.0085 0.00552,-0.0168 0.00781,-0.02539 6.1e-5,-2.24e-4 0.00189,2.24e-4 0.00195,0 L -4,18.5 v -1 h -0.00195 v -0.002 l -1.1015625,-0.275391 c -5.52e-5,-2.04e-4 -0.0019,2.04e-4 -0.00195,0 -0.0221,-0.08308 -0.052994,-0.163385 -0.082031,-0.24414 -0.015326,-0.04194 -0.025789,-0.08575 -0.042969,-0.126954 C -5.28003,16.730904 -5.3392119,16.613355 -5.4042969,16.5 l 0.5859375,-0.974609 v -0.002 l -0.7070312,-0.705079 v -0.002 L -6.5,15.402344 h -0.00195 c -0.2267,-0.13016 -0.4700363,-0.229625 -0.7226563,-0.296875 L -7.5,14 Z m 0.5292969,2 c 0.066,9.2e-4 0.1316456,0.0043 0.1972656,0.01172 0.0668,0.008 0.1335188,0.0188 0.1992187,0.0332 0.0653,0.0142 0.1298094,0.03203 0.1933594,0.05273 0.0629,0.0209 0.1250569,0.04527 0.1855469,0.07227 0.0612,0.0264 0.1214275,0.05539 0.1796875,0.08789 0.00536,0.0031 0.010297,0.0067 0.015625,0.0098 v 0.0078 c 0.0265,0.0153 0.054278,0.02842 0.080078,0.04492 0.055399,0.03552 0.108498,0.07444 0.1601563,0.115235 0.00182,0.0015 0.00404,0.0024 0.00586,0.0039 0.050862,0.04066 0.099843,0.08355 0.1464843,0.128906 0.045374,0.04392 0.087921,0.09062 0.1289063,0.138672 0.00968,0.01131 0.017927,0.02363 0.027344,0.03516 0.035075,0.04332 0.07017,0.08668 0.1015625,0.132812 0.035808,0.05172 0.068838,0.105266 0.099609,0.160156 0.028332,0.05221 0.054632,0.103717 0.078125,0.158203 0.00199,0.0045 0.0039,0.0091 0.00586,0.01367 0.011125,0.02542 0.019245,0.05228 0.029297,0.07813 0.015239,0.03962 0.032197,0.07862 0.044922,0.119141 0.00657,0.0211 0.00975,0.04314 0.015625,0.06445 0.011015,0.03892 0.022629,0.07768 0.03125,0.117188 0.00902,0.04257 0.015282,0.08585 0.021484,0.128906 0.00273,0.01894 0.00757,0.03763 0.00977,0.05664 4.539e-4,0.0038 -4.37e-4,0.0079 0,0.01172 0.0063,0.06175 0.010872,0.123482 0.011719,0.185547 9.418e-4,0.06291 -6.44e-4,0.126696 -0.00586,0.189453 -3.223e-4,0.0039 3.492e-4,0.0078 0,0.01172 -0.00141,0.01771 -0.00592,0.03507 -0.00781,0.05273 -0.00563,0.04887 -0.010345,0.09811 -0.019531,0.146485 -0.009,0.0498 -0.022156,0.09761 -0.035156,0.146484 0,0 0.00195,0.002 0.00195,0.002 -0.0067,0.02471 -0.014411,0.04963 -0.021484,0.07422 -0.00243,0.0085 -0.0051,0.01703 -0.00781,0.02539 -0.00304,0.0092 -0.0066,0.0182 -0.00977,0.02734 -0.017405,0.04996 -0.035336,0.09807 -0.056641,0.146485 -0.00143,0.0032 -0.00246,0.0065 -0.00391,0.0098 -0.00148,0.0035 -0.00436,0.0063 -0.00586,0.0098 -0.025248,0.05761 -0.053416,0.114823 -0.083984,0.169922 -0.00374,0.0066 -0.0079,0.01302 -0.011719,0.01953 -0.028698,0.04899 -0.059055,0.09812 -0.091797,0.144531 -0.00135,0.0019 -0.00255,0.004 -0.00391,0.0059 -0.00478,0.0068 -0.010758,0.01276 -0.015625,0.01953 -0.034493,0.04723 -0.068877,0.09274 -0.1074218,0.136719 -0.0303,0.0359 -0.062503,0.07034 -0.095703,0.103515 -0.047,0.0471 -0.096667,0.0929 -0.1484375,0.134766 -0.0518,0.0419 -0.1048362,0.08217 -0.1601562,0.11914 -0.0562,0.037 -0.1141382,0.07046 -0.1738281,0.101563 -0.0589,0.031 -0.1199707,0.05898 -0.1816407,0.08398 -0.0614,0.0252 -0.12383,0.04741 -0.1875,0.06641 -0.0641,0.0185 -0.1277294,0.03292 -0.1933593,0.04492 -0.0658,0.0125 -0.1325288,0.02144 -0.1992188,0.02734 -0.0666,0.006 -0.1343419,0.0088 -0.2011719,0.0078 -0.064046,-8.93e-4 -0.1277142,-0.0047 -0.1914062,-0.01172 -0.00193,-2.08e-4 -0.00393,2.14e-4 -0.00586,0 -0.00266,-3.18e-4 -0.00516,-0.0016 -0.00781,-0.002 -0.064113,-0.0079 -0.1283271,-0.01752 -0.1914062,-0.03125 -0.0299,-0.007 -0.058291,-0.01739 -0.087891,-0.02539 l -0.00586,0.0059 c -0.00519,-0.0014 -0.010441,-0.0025 -0.015625,-0.0039 -0.06419,-0.0182 -0.1274532,-0.03985 -0.1894532,-0.06445 -0.06184,-0.0237 -0.1224406,-0.05038 -0.1816406,-0.08008 -0.05957,-0.0303 -0.1176281,-0.06351 -0.1738281,-0.09961 -0.05663,-0.03628 -0.1113625,-0.07539 -0.1640625,-0.117188 -0.05164,-0.04116 -0.1011375,-0.08486 -0.1484375,-0.130859 -0.04802,-0.04649 -0.093619,-0.09538 -0.1367188,-0.146485 -0.04299,-0.05132 -0.083394,-0.104756 -0.1210937,-0.160156 -0.0288,-0.04161 -0.054778,-0.08511 -0.080078,-0.128906 0,0 -0.00195,0 -0.00195,0 -0.017147,-0.02983 -0.035173,-0.05915 -0.050781,-0.08984 -0.0297,-0.0592 -0.056378,-0.1198 -0.080078,-0.18164 -0.0246,-0.062 -0.046053,-0.125263 -0.064453,-0.189454 -0.00196,-0.0072 -0.00398,-0.01431 -0.00586,-0.02148 l 0.00586,-0.0059 c -0.008,-0.0296 -0.016837,-0.05799 -0.023437,-0.08789 -0.0144,-0.0657 -0.025403,-0.132399 -0.033203,-0.199219 -0.007,-0.0656 -0.012772,-0.131285 -0.013672,-0.197265 -10e-4,-0.0668 0.00181,-0.132609 0.00781,-0.199219 0.006,-0.0667 0.014844,-0.133389 0.027344,-0.199219 0.00737,-0.04063 0.01744,-0.08098 0.027344,-0.121094 0.00834,-0.03195 0.01548,-0.0642 0.025391,-0.0957 0.019519,-0.06302 0.042755,-0.124767 0.068359,-0.185547 2.376e-4,-5.64e-4 -2.381e-4,-0.0014 0,-0.002 0.00146,-0.0035 0.00438,-0.0063 0.00586,-0.0098 0.024479,-0.05767 0.050277,-0.114818 0.080078,-0.169922 0.0323,-0.0584 0.067499,-0.115082 0.1054688,-0.169922 0.0377,-0.0554 0.078104,-0.108826 0.1210937,-0.160156 0.0431,-0.0511 0.088699,-0.100005 0.1367188,-0.146485 0.0473,-0.046 0.096797,-0.0897 0.1484375,-0.130859 0.0527,-0.0418 0.1074525,-0.0809 0.1640625,-0.117188 0.0258,-0.0165 0.053578,-0.02962 0.080078,-0.04492 v -0.0078 c 0.0061,-0.0036 0.011442,-0.0082 0.017578,-0.01172 0.0584,-0.0324 0.1184475,-0.06139 0.1796875,-0.08789 0.0605,-0.027 0.1226869,-0.05147 0.1855469,-0.07227 0.0327,-0.0107 0.066409,-0.01834 0.099609,-0.02734 0.0489,-0.0131 0.098667,-0.0242 0.1484375,-0.0332 0.0658,-0.0125 0.1325387,-0.0234 0.1992187,-0.0293 0.0666,-0.006 0.1323888,-0.0069 0.1992188,-0.0059 z"
         style="opacity:1;fill:currentColor;fill-opacity:1;stroke:none;stroke-width:0.1;stroke-linecap:square;stroke-linejoin:miter;stroke-miterlimit:4;stroke-dasharray:none;stroke-dashoffset:0;stroke-opacity:1" />
      <rect
         style="opacity:1;fill:none;fill-opacity:1;stroke:none;stroke-width:0.10079043;stroke-linecap:square;stroke-linejoin:miter;stroke-miterlimit:4;stroke-dasharray:none;stroke-dashoffset:0;stroke-opacity:1"
         id="rect4442"
         width="16"
         height="16"
         x="303"
         y="537.36218" />
      <path
         class="ColorScheme-Text"
         id="rect4148"
         d="m 308,539.36218 c 0,0 -1,0 -1,1 v 10 c 0,0 0,1.00002 1,1 l 1,2e-5 v -2 h -1 v -9.00002 h 6 v 2 h 1 v -2 c 0,-1 -1,-1 -1,-1 z m 2,2.00002 v 1 h 2 v -1 z"
         style="opacity:1;fill:currentColor;fill-opacity:1;stroke:none" />
    </g>
    <g
       id="22-22-kdeconnect">
      <g
         id="g1666"
         transform="translate(-1)">
        <rect
           style="opacity:1;fill:none;fill-opacity:1;stroke:none;stroke-width:0.13858683;stroke-linecap:square;stroke-linejoin:miter;stroke-miterlimit:4;stroke-dasharray:none;stroke-dashoffset:0;stroke-opacity:1"
           id="rect4444"
           width="22"
           height="22"
           x="356"
           y="534.36218" />
        <g
           id="g1101"
           transform="translate(-19,-34.00002)">
          <path
             class="ColorScheme-Text"
             id="rect4403-3-2-9-7-3"
             transform="translate(341,563.3622)"
             d="m 44.5,13 -0.277344,1.107422 c -0.07611,0.02029 -0.148506,0.05001 -0.222656,0.07617 -0.171456,0.06049 -0.340061,0.130027 -0.498047,0.220703 l -0.976562,-0.585938 -0.707032,0.707032 0.585938,0.976562 c -0.09404,0.162274 -0.166435,0.335085 -0.228516,0.511719 -0.02466,0.07015 -0.05286,0.139024 -0.07227,0.210937 L 41,16.5 v 1 l 1.107422,0.277344 c 0.0672,0.25213 0.166995,0.494393 0.296875,0.720703 l -0.585938,0.976562 0.707032,0.707032 0.976562,-0.585938 c 0.22672,0.13139 0.469666,0.232511 0.722656,0.300781 L 44.5,21 h 1 l 0.277344,-1.107422 c 0.07612,-0.02029 0.148502,-0.05001 0.222656,-0.07617 0.171466,-0.06049 0.340061,-0.130027 0.498047,-0.220703 l 0.976562,0.585938 0.707032,-0.707032 -0.585938,-0.976562 c 0.09404,-0.162267 0.166438,-0.335082 0.228516,-0.511719 0.02465,-0.07015 0.05286,-0.139021 0.07227,-0.210937 L 49,17.5 v -1 l -1.107422,-0.277344 c -0.0672,-0.25213 -0.167015,-0.494383 -0.296875,-0.720703 l 0.585938,-0.976562 -0.707032,-0.707032 -0.976562,0.585938 c -0.22671,-0.1314 -0.469666,-0.232501 -0.722656,-0.300781 L 45.5,13 Z m 0.443359,2 h 0.136719 c 0.0398,7.8e-4 0.0795,0.0029 0.119141,0.0059 0.0662,0.006 0.132005,0.0163 0.197265,0.0293 0.0659,0.0136 0.131123,0.03058 0.195313,0.05078 0.0636,0.0197 0.12622,0.04246 0.1875,0.06836 0.0613,0.0257 0.121237,0.05434 0.179687,0.08594 0.0584,0.0322 0.115032,0.06752 0.169922,0.105469 0.0554,0.0377 0.108826,0.07807 0.160156,0.121094 0.0304,0.0262 0.05949,0.05363 0.08789,0.08203 l 0.08789,0.08789 c 0.0355,0.0369 0.06973,0.07496 0.101562,0.115234 0.0416,0.0529 0.08088,0.107483 0.117188,0.164063 0.0361,0.0562 0.06931,0.114248 0.09961,0.173828 0.0297,0.0593 0.05638,0.11978 0.08008,0.18164 0.0245,0.062 0.04605,0.125243 0.06445,0.189454 0.0176,0.0643 0.03187,0.129502 0.04297,0.195312 0.0111,0.066 0.01904,0.132439 0.02344,0.199219 0.004,0.0468 0.0059,0.0937 0.0059,0.140625 7e-5,0.0665 -0.0028,0.132999 -0.0098,0.199218 -0.007,0.0663 -0.0163,0.132016 -0.0293,0.197266 -0.0136,0.0659 -0.03058,0.131123 -0.05078,0.195313 -0.0197,0.0636 -0.04246,0.12621 -0.06836,0.1875 -0.0256,0.0612 -0.05434,0.121237 -0.08594,0.179687 -0.0323,0.0584 -0.06752,0.115032 -0.105468,0.169922 -0.0377,0.0554 -0.07808,0.108826 -0.121094,0.160156 -0.0428,0.0513 -0.08876,0.09994 -0.136719,0.146485 -0.0473,0.046 -0.09683,0.08968 -0.148437,0.130859 -0.0529,0.0416 -0.107503,0.08087 -0.164063,0.117188 -0.0261,0.0162 -0.05358,0.02962 -0.08008,0.04492 v 0.0039 c -0.03133,0.01812 -0.06148,0.03827 -0.09375,0.05469 -0.0592,0.0297 -0.119801,0.05638 -0.181641,0.08008 -0.062,0.0246 -0.125263,0.04625 -0.189453,0.06445 -0.0644,0.0176 -0.129542,0.03187 -0.195312,0.04297 -0.066,0.0111 -0.132459,0.01904 -0.199219,0.02344 -0.0279,0.003 -0.05588,0.0049 -0.08398,0.0059 h -0.136719 c -0.0398,-7.7e-4 -0.0795,-0.0029 -0.119141,-0.0059 -0.0662,-0.006 -0.132035,-0.0163 -0.197265,-0.0293 -0.0659,-0.0136 -0.131103,-0.03058 -0.195313,-0.05078 -0.0636,-0.0197 -0.12618,-0.04246 -0.1875,-0.06836 -0.0613,-0.0256 -0.121247,-0.05434 -0.179687,-0.08594 -0.0584,-0.0323 -0.115072,-0.06751 -0.169922,-0.105469 -0.0554,-0.0377 -0.108836,-0.07809 -0.160156,-0.121094 -0.0301,-0.0265 -0.05939,-0.05383 -0.08789,-0.08203 l -0.08789,-0.08789 c -0.0353,-0.0371 -0.0692,-0.0755 -0.101562,-0.115234 -0.0418,-0.0527 -0.0809,-0.107433 -0.117188,-0.164063 -0.0361,-0.0562 -0.06931,-0.114248 -0.09961,-0.173828 -0.0297,-0.0592 -0.05638,-0.1198 -0.08008,-0.18164 -0.0246,-0.062 -0.04605,-0.125263 -0.06445,-0.189454 -0.0176,-0.0643 -0.03187,-0.129532 -0.04297,-0.195312 -0.0111,-0.066 -0.01904,-0.132459 -0.02344,-0.199219 -0.004,-0.0468 -0.0059,-0.0937 -0.0059,-0.140625 -6e-5,-0.0665 0.0028,-0.133019 0.0098,-0.199218 0.007,-0.0662 0.0163,-0.132036 0.0293,-0.197266 0.0136,-0.0659 0.03058,-0.131103 0.05078,-0.195313 0.0197,-0.0636 0.04246,-0.12618 0.06836,-0.1875 0.0256,-0.0613 0.05434,-0.121257 0.08594,-0.179687 0.0323,-0.0584 0.0675,-0.115082 0.105468,-0.169922 0.0377,-0.0554 0.0781,-0.108826 0.121094,-0.160156 0.0431,-0.0511 0.0887,-0.100005 0.136719,-0.146485 0.0473,-0.046 0.0968,-0.0897 0.148437,-0.130859 0.0527,-0.0418 0.107453,-0.0809 0.164063,-0.117188 0.0258,-0.0165 0.05358,-0.02962 0.08008,-0.04492 v -0.0039 c 0.03133,-0.01812 0.06148,-0.03827 0.09375,-0.05469 0.0593,-0.0297 0.119781,-0.05638 0.181641,-0.08008 0.0619,-0.0246 0.125273,-0.04625 0.189453,-0.06445 0.0644,-0.0176 0.129592,-0.03187 0.195312,-0.04297 0.066,-0.0111 0.132419,-0.01904 0.199219,-0.02344 0.0279,-0.003 0.05588,-0.0049 0.08398,-0.0059 z"
             style="opacity:1;fill:currentColor;fill-opacity:1;stroke:none;stroke-width:0.1;stroke-linecap:square;stroke-linejoin:miter;stroke-miterlimit:4;stroke-dasharray:none;stroke-dashoffset:0;stroke-opacity:1" />
        </g>
      </g>
      <g
         id="g1581">
        <path
           class="ColorScheme-Text"
           id="rect4403-3-5-2-9"
           d="m 361,538.3622 v 14 c 0,0 0,0.99998 1,0.99998 l 8,2e-5 c 1,0 1,-1 1,-1 v -14 c 0,0 0,-1.00002 -1,-1.00002 l -8,2e-5 c -1,-2e-5 -1,1 -1,1 z m 1,-2e-5 h 1 6 1 v 3 3.5 1 3.5 2.00002 h -1 -6 -1 v -2.00002 -3.5 -1 -3.5 z m 2,1.00002 v 1 h 4 v -1 z"
           style="opacity:1;fill:currentColor;fill-opacity:1;stroke:none;stroke-width:0.1;stroke-linecap:square;stroke-linejoin:miter;stroke-miterlimit:4;stroke-dasharray:none;stroke-dashoffset:0;stroke-opacity:1" />
      </g>
    </g>
  </g>
</svg>
