<?xml version="1.0" encoding="UTF-8" standalone="no"?>
<svg
   xmlns:dc="http://purl.org/dc/elements/1.1/"
   xmlns:cc="http://creativecommons.org/ns#"
   xmlns:rdf="http://www.w3.org/1999/02/22-rdf-syntax-ns#"
   xmlns:svg="http://www.w3.org/2000/svg"
   xmlns="http://www.w3.org/2000/svg"
   xmlns:sodipodi="http://sodipodi.sourceforge.net/DTD/sodipodi-0.dtd"
   xmlns:inkscape="http://www.inkscape.org/namespaces/inkscape"
   version="1.1"
   id="svg2"
   viewBox="0 0 32 32"
   inkscape:version="0.92.5 (2060ec1f9f, 2020-04-08)"
   sodipodi:docname="touchpad.svg"
   width="32"
   height="32">
  <sodipodi:namedview
     pagecolor="#c8c8c8"
     bordercolor="#666666"
     borderopacity="1"
     objecttolerance="10"
     gridtolerance="10"
     guidetolerance="10"
     inkscape:pageopacity="0"
     inkscape:pageshadow="2"
     inkscape:window-width="1920"
     inkscape:window-height="1059"
     id="namedview20"
     showgrid="true"
     inkscape:zoom="8"
     inkscape:cx="-23.115276"
     inkscape:cy="32.168737"
     inkscape:window-x="0"
     inkscape:window-y="21"
     inkscape:window-maximized="1"
     inkscape:current-layer="svg2"
     inkscape:snap-bbox="true"
     inkscape:bbox-nodes="true"
     inkscape:snap-bbox-edge-midpoints="true"
     inkscape:snap-nodes="true"
     inkscape:object-nodes="false">
    <inkscape:grid
       type="xygrid"
       id="grid826" />
  </sodipodi:namedview>
  <metadata
     id="metadata32">
    <rdf:RDF>
      <cc:Work
         rdf:about="">
        <dc:format>image/svg+xml</dc:format>
        <dc:type
           rdf:resource="http://purl.org/dc/dcmitype/StillImage" />
        <dc:title></dc:title>
      </cc:Work>
    </rdf:RDF>
  </metadata>
  <defs
     id="defs3051">
    <style
       type="text/css"
       id="current-color-scheme">
      .ColorScheme-Text {
        color:#31363b;
      }
      .ColorScheme-Background {
        color:#eff0f1;
      }
      .ColorScheme-Highlight {
        color:#3daee9;
      }
      .ColorScheme-ViewText {
        color:#31363b;
      }
      .ColorScheme-ViewBackground {
        color:#fcfcfc;
      }
      .ColorScheme-ViewHover {
        color:#93cee9;
      }
      .ColorScheme-ViewFocus{
        color:#3daee9;
      }
      .ColorScheme-ButtonText {
        color:#31363b;
      }
      .ColorScheme-ButtonBackground {
        color:#eff0f1;
      }
      .ColorScheme-ButtonHover {
        color:#93cee9;
      }
      .ColorScheme-ButtonFocus{
        color:#3daee9;
      }
      .ColorScheme-NegativeText {
        color:#da4453;
      }
      </style>
    <style
       id="style828"
       type="text/css" />
  </defs>
  <g
     id="touchpad_enabled">
    <path
       id="path14"
       d="M 0,0 V 32 H 32 V 0 Z"
       style="opacity:1;fill:none"
       inkscape:connector-curvature="0" />
    <g
       id="g947">
      <g
         id="g887"
         transform="translate(-44,1)">
        <path
           sodipodi:nodetypes="ccssssccssssc"
           inkscape:connector-curvature="0"
           id="path863"
           d="m 74,17 h -1 v 6 c 0,2.216 -1.784,4 -4,4 h -3 c -2.216,0 -4,-1.784 -4,-4 v -6 h -1 v 6 c 0,2.77 2.23,5 5,5 h 3 c 2.77,0 5,-2.23 5,-5 z"
           style="opacity:1;fill:#323232;fill-opacity:1;stroke:none;stroke-width:1.72669673;stroke-miterlimit:4;stroke-dasharray:none;stroke-opacity:1" />
        <path
           id="rect865"
           d="M 64.5,9 C 63.669,9 63,9.669 63,10.5 V 17 h 1 v -7 h 1 v 7 h 1 V 10.5 C 66,9.669 65.331,9 64.5,9 Z"
           style="opacity:1;fill:#323232;fill-opacity:1;stroke:none;stroke-width:1.22474492;stroke-miterlimit:4;stroke-dasharray:none;stroke-opacity:1"
           inkscape:connector-curvature="0" />
        <rect
           ry="0"
           y="16"
           x="61"
           height="1"
           width="3"
           id="rect867"
           style="opacity:1;fill:#323232;fill-opacity:1;stroke:none;stroke-width:0.46291006;stroke-miterlimit:4;stroke-dasharray:none;stroke-opacity:1" />
        <rect
           ry="0"
           y="17"
           x="63"
           height="4"
           width="1"
           id="rect873"
           style="opacity:1;fill:#323232;fill-opacity:1;stroke:none;stroke-width:0.70710677;stroke-miterlimit:4;stroke-dasharray:none;stroke-opacity:1" />
        <rect
           style="opacity:1;fill:#323232;fill-opacity:1;stroke:none;stroke-width:0.80178374;stroke-miterlimit:4;stroke-dasharray:none;stroke-opacity:1"
           id="rect877"
           width="9"
           height="1"
           x="65"
           y="16"
           ry="0" />
      </g>
      <path
         style="opacity:1;fill:#323232;fill-opacity:1;stroke:none;stroke-width:1.13389337;stroke-miterlimit:4;stroke-dasharray:none;stroke-opacity:1"
         d="M 4,5 C 3.446,5 3,5.446 3,6 v 16 c 0,0.554 0.446,1 1,1 H 17 V 22 H 4 V 6 h 22 v 11 h 1 V 6 C 27,5.446 26.554,5 26,5 Z"
         id="rect916"
         inkscape:connector-curvature="0" />
    </g>
  </g>
  <g
     id="22-22-touchpad_enabled">
    <path
       id="path9"
       d="M -22,10 V 32 H 0 V 10 Z"
       style="opacity:1;fill:none"
       inkscape:connector-curvature="0" />
    <g
       transform="translate(32,27)"
       id="g1017">
      <path
         inkscape:connector-curvature="0"
         style="opacity:1;fill:#323232;fill-opacity:1;stroke:none;stroke-width:0.75592893;stroke-miterlimit:4;stroke-dasharray:none;stroke-opacity:1"
         d="m -51,-14 c -0.554,0 -1,0.446 -1,1 v 10 c 0,0.554 0.446,1 1,1 h 7 v -1 h -7 v -10 h 14 v 7 h 1 v -7 c 0,-0.554 -0.446,-1 -1,-1 z"
         id="rect846" />
      <g
         id="g1005">
        <path
           inkscape:connector-curvature="0"
           id="rect977"
           d="m -44,-5 v 3 c 0,2.216 1.784,4 4,4 h 2 c 2.216,0 4,-1.784 4,-4 v -3 h -1 v 3 c 0,1.662 -1.338,3 -3,3 h -2 c -1.662,0 -3,-1.338 -3,-3 v -3 z"
           style="opacity:1;fill:#323232;fill-opacity:1;stroke:none;stroke-width:1.18321598;stroke-miterlimit:4;stroke-dasharray:none;stroke-opacity:1" />
        <path
           inkscape:connector-curvature="0"
           id="rect986"
           d="m -40.5,-11 c -0.831,0 -1.5,0.669 -1.5,1.5 V -5 h 1 v -5 h 1 v 5 h 1 v -4.5 c 0,-0.831 -0.669,-1.5 -1.5,-1.5 z"
           style="opacity:1;fill:#323232;fill-opacity:1;stroke:none;stroke-width:1.73205078;stroke-miterlimit:4;stroke-dasharray:none;stroke-opacity:1" />
        <rect
           ry="0"
           y="-6"
           x="-44"
           height="1"
           width="2"
           id="rect988"
           style="opacity:1;fill:#323232;fill-opacity:1;stroke:none;stroke-width:1;stroke-miterlimit:4;stroke-dasharray:none;stroke-opacity:1" />
        <rect
           ry="0"
           y="-5"
           x="-42"
           height="2"
           width="1"
           id="rect996"
           style="opacity:1;fill:#323232;fill-opacity:1;stroke:none;stroke-width:1;stroke-miterlimit:4;stroke-dasharray:none;stroke-opacity:1" />
        <rect
           style="opacity:1;fill:#323232;fill-opacity:1;stroke:none;stroke-width:1.58113885;stroke-miterlimit:4;stroke-dasharray:none;stroke-opacity:1"
           id="rect998"
           width="5"
           height="1"
           x="-39"
           y="-6"
           ry="0" />
      </g>
    </g>
  </g>
  <g
     id="touchpad_disabled"
     transform="translate(0,33)">
    <path
       inkscape:connector-curvature="0"
       style="color:#da4453;fill:#ff3232;fill-opacity:1;stroke:none"
       d="M 7,-55.293 10.293,-52 7,-48.707 C 7.013,-48.682 7.707,-48 7.707,-48 L 11,-51.293 14.293,-48 15,-48.707 11.707,-52 15,-55.293 14.293,-56 11,-52.707 7.707,-56 Z"
       class="ColorScheme-NegativeText"
       id="path28" />
    <path
       inkscape:connector-curvature="0"
       style="opacity:1;fill:none"
       d="m 0,-65 v 32 h 32 v -32 z"
       id="path1032" />
    <g
       transform="translate(0,-65)"
       id="g1048">
      <g
         transform="translate(-44,1)"
         id="g1044">
        <path
           style="opacity:0.5;fill:#323232;fill-opacity:1;stroke:none;stroke-width:1.72669673;stroke-miterlimit:4;stroke-dasharray:none;stroke-opacity:1"
           d="m 74,17 h -1 v 6 c 0,2.216 -1.784,4 -4,4 h -3 c -2.216,0 -4,-1.784 -4,-4 v -6 h -1 v 6 c 0,2.77 2.23,5 5,5 h 3 c 2.77,0 5,-2.23 5,-5 z"
           id="path1034"
           inkscape:connector-curvature="0"
           sodipodi:nodetypes="ccssssccssssc" />
        <path
           inkscape:connector-curvature="0"
           style="opacity:0.5;fill:#323232;fill-opacity:1;stroke:none;stroke-width:1.22474492;stroke-miterlimit:4;stroke-dasharray:none;stroke-opacity:1"
           d="M 64.5,9 C 63.669,9 63,9.669 63,10.5 V 17 h 1 v -7 h 1 v 7 h 1 V 10.5 C 66,9.669 65.331,9 64.5,9 Z"
           id="path1036" />
        <rect
           style="opacity:0.5;fill:#323232;fill-opacity:1;stroke:none;stroke-width:0.37796447;stroke-miterlimit:4;stroke-dasharray:none;stroke-opacity:1"
           id="rect1038"
           width="2"
           height="1"
           x="61"
           y="16"
           ry="0" />
        <rect
           style="opacity:0.5;fill:#323232;fill-opacity:1;stroke:none;stroke-width:0.70710677;stroke-miterlimit:4;stroke-dasharray:none;stroke-opacity:1"
           id="rect1040"
           width="1"
           height="4"
           x="63"
           y="17"
           ry="0" />
        <rect
           ry="0"
           y="16"
           x="66"
           height="1"
           width="8"
           id="rect1042"
           style="opacity:0.5;fill:#323232;fill-opacity:1;stroke:none;stroke-width:0.75592893;stroke-miterlimit:4;stroke-dasharray:none;stroke-opacity:1" />
      </g>
      <path
         inkscape:connector-curvature="0"
         id="path1046"
         d="M 4,5 C 3.446,5 3,5.446 3,6 v 16 c 0,0.554 0.446,1 1,1 H 17 V 22 H 4 V 6 h 22 v 11 h 1 V 6 C 27,5.446 26.554,5 26,5 Z"
         style="opacity:0.5;fill:#323232;fill-opacity:1;stroke:none;stroke-width:1.13389337;stroke-miterlimit:4;stroke-dasharray:none;stroke-opacity:1" />
    </g>
  </g>
  <g
     id="22-22-touchpad_disabled"
     transform="translate(0,33)">
    <g
       transform="translate(0,-65)"
       id="g1070">
      <path
         id="path1052"
         d="M -22,10 V 32 H 0 V 10 Z"
         style="opacity:1;fill:none"
         inkscape:connector-curvature="0" />
      <g
         transform="translate(32,27)"
         id="g1068">
        <path
           inkscape:connector-curvature="0"
           style="opacity:0.5;fill:#323232;fill-opacity:1;stroke:none;stroke-width:0.75592893;stroke-miterlimit:4;stroke-dasharray:none;stroke-opacity:1"
           d="m -51,-14 c -0.554,0 -1,0.446 -1,1 v 10 c 0,0.554 0.446,1 1,1 h 7 v -1 h -7 v -10 h 14 v 7 h 1 v -7 c 0,-0.554 -0.446,-1 -1,-1 z"
           id="path1054" />
        <g
           id="g1066">
          <path
             inkscape:connector-curvature="0"
             id="path1056"
             d="m -44,-5 v 3 c 0,2.216 1.784,4 4,4 h 2 c 2.216,0 4,-1.784 4,-4 v -3 h -1 v 3 c 0,1.662 -1.338,3 -3,3 h -2 c -1.662,0 -3,-1.338 -3,-3 v -3 z"
             style="opacity:0.5;fill:#323232;fill-opacity:1;stroke:none;stroke-width:1.18321598;stroke-miterlimit:4;stroke-dasharray:none;stroke-opacity:1" />
          <path
             inkscape:connector-curvature="0"
             id="path1058"
             d="m -40.5,-11 c -0.831,0 -1.5,0.669 -1.5,1.5 V -5 h 1 v -5 h 1 v 5 h 1 v -4.5 c 0,-0.831 -0.669,-1.5 -1.5,-1.5 z"
             style="opacity:0.5;fill:#323232;fill-opacity:1;stroke:none;stroke-width:1.73205078;stroke-miterlimit:4;stroke-dasharray:none;stroke-opacity:1" />
          <rect
             ry="0"
             y="-6"
             x="-44"
             height="1"
             width="2"
             id="rect1060"
             style="opacity:0.5;fill:#323232;fill-opacity:1;stroke:none;stroke-width:1;stroke-miterlimit:4;stroke-dasharray:none;stroke-opacity:1" />
          <rect
             ry="0"
             y="-5"
             x="-42"
             height="2"
             width="1"
             id="rect1062"
             style="opacity:0.5;fill:#323232;fill-opacity:1;stroke:none;stroke-width:1;stroke-miterlimit:4;stroke-dasharray:none;stroke-opacity:1" />
          <rect
             style="opacity:0.5;fill:#323232;fill-opacity:1;stroke:none;stroke-width:1.58113885;stroke-miterlimit:4;stroke-dasharray:none;stroke-opacity:1"
             id="rect1064"
             width="5"
             height="1"
             x="-39"
             y="-6"
             ry="0" />
        </g>
      </g>
    </g>
    <g
       transform="translate(-1.0502531)"
       id="g1102">
      <rect
         style="opacity:1;fill:#ff3232;fill-opacity:1;stroke:none;stroke-width:1.01015282;stroke-miterlimit:4;stroke-dasharray:none;stroke-opacity:1"
         id="rect1096"
         width="6.0609169"
         height="1.0101528"
         x="-46.835548"
         y="-23.875139"
         ry="0"
         transform="rotate(44.999994)" />
      <rect
         transform="matrix(-0.70710686,0.7071067,0.70710686,0.7071067,0,0)"
         ry="0"
         y="-44.310165"
         x="-26.400522"
         height="1.0101528"
         width="6.0609169"
         id="rect1098"
         style="opacity:1;fill:#ff3232;fill-opacity:1;stroke:none;stroke-width:1.01015282;stroke-miterlimit:4;stroke-dasharray:none;stroke-opacity:1" />
    </g>
  </g>
</svg>
