<?xml version="1.0" encoding="UTF-8" standalone="no"?>
<!-- Created with Inkscape (http://www.inkscape.org/) -->

<svg
   xmlns:dc="http://purl.org/dc/elements/1.1/"
   xmlns:cc="http://creativecommons.org/ns#"
   xmlns:rdf="http://www.w3.org/1999/02/22-rdf-syntax-ns#"
   xmlns:svg="http://www.w3.org/2000/svg"
   xmlns="http://www.w3.org/2000/svg"
   xmlns:sodipodi="http://sodipodi.sourceforge.net/DTD/sodipodi-0.dtd"
   xmlns:inkscape="http://www.inkscape.org/namespaces/inkscape"
   width="24.09"
   height="24.059999"
   id="svg3091"
   version="1.1"
   inkscape:version="0.92.4 5da689c313, 2019-01-14"
   sodipodi:docname="juk.svg">
  <defs
     id="defs3093" />
  <sodipodi:namedview
     id="base"
     pagecolor="#6f6f6f"
     bordercolor="#ffffff"
     borderopacity="1"
     inkscape:pageopacity="0.41960784"
     inkscape:pageshadow="2"
     inkscape:zoom="11.2"
     inkscape:cx="-20.31196"
     inkscape:cy="15.024734"
     inkscape:document-units="px"
     inkscape:current-layer="layer1"
     showgrid="true"
     inkscape:window-width="1920"
     inkscape:window-height="1061"
     inkscape:window-x="0"
     inkscape:window-y="19"
     inkscape:window-maximized="1"
     inkscape:showpageshadow="false" />
  <metadata
     id="metadata3096">
    <rdf:RDF>
      <cc:Work
         rdf:about="">
        <dc:format>image/svg+xml</dc:format>
        <dc:type
           rdf:resource="http://purl.org/dc/dcmitype/StillImage" />
        <dc:title></dc:title>
      </cc:Work>
    </rdf:RDF>
  </metadata>
  <g
     inkscape:label="Capa 1"
     inkscape:groupmode="layer"
     id="layer1"
     transform="translate(0,-1028.3022)">
    <g
       id="juk">
      <rect
         y="1028.3322"
         x="0.045000076"
         height="24"
         width="24"
         id="rect3833"
         style="opacity:0.00100002;fill:#ffffff;fill-opacity:1;stroke:none" />
      <path
         id="path4398"
         d="m 18.108222,1034.0957 c -1.066405,-1.5822 -2.979637,-2.5006 -5.68204,-2.7291 l -0.0045,-4e-4 c -0.199222,-0.023 -0.390565,-0.034 -0.568652,-0.034 -1.362412,0 -1.845869,0.682 -1.845869,1.266 l 0,10.1644 -5e-5,0 c -0.5358156,-0.1615 -1.110584,-0.2081 -1.678207,-0.1365 -0.989138,0.1249 -1.875337,0.5892 -2.495242,1.3077 -0.619955,0.7185 -0.899405,1.605 -0.786905,2.4962 0.208787,1.6546 1.75722,2.9022 3.601956,2.9022 0.173209,0 0.348881,-0.011 0.522287,-0.033 1.912197,-0.2413 3.300035,-1.758 3.300035,-3.6061 l 0,-9.9735 c 0.143545,-0.01 0.287335,-0.014 0.427577,-0.014 1.685917,0 3.235927,0.7053 4.482539,2.0395 0.513861,0.55 0.874569,1.097 1.086756,1.459 0.05213,0.089 0.153745,0.1362 0.255551,0.1181 0.101412,-0.018 0.180995,-0.097 0.199424,-0.1985 0.204451,-1.1228 0.370662,-3.269 -0.814648,-5.0276 z"
         inkscape:connector-curvature="0"
         style="fill:#566060;fill-opacity:1;stroke-width:1.31742239;stroke-miterlimit:4;stroke-dasharray:none" />
    </g>
  </g>
</svg>
