<?xml version="1.0" encoding="UTF-8" standalone="no"?>
<!-- Created with Inkscape (http://www.inkscape.org/) -->

<svg
   xmlns:dc="http://purl.org/dc/elements/1.1/"
   xmlns:cc="http://creativecommons.org/ns#"
   xmlns:rdf="http://www.w3.org/1999/02/22-rdf-syntax-ns#"
   xmlns:svg="http://www.w3.org/2000/svg"
   xmlns="http://www.w3.org/2000/svg"
   xmlns:sodipodi="http://sodipodi.sourceforge.net/DTD/sodipodi-0.dtd"
   xmlns:inkscape="http://www.inkscape.org/namespaces/inkscape"
   width="22"
   height="22"
   id="svg3108"
   version="1.1"
   inkscape:version="0.92.4 5da689c313, 2019-01-14"
   sodipodi:docname="video-display.svg">
  <defs
     id="defs3110" />
  <sodipodi:namedview
     id="base"
     pagecolor="#707070"
     bordercolor="#ffffff"
     borderopacity="1"
     inkscape:pageopacity="0.8"
     inkscape:pageshadow="2"
     inkscape:zoom="11.197802"
     inkscape:cx="1.0881901"
     inkscape:cy="11.740721"
     inkscape:current-layer="layer1"
     showgrid="false"
     inkscape:grid-bbox="true"
     inkscape:document-units="px"
     fit-margin-top="0"
     fit-margin-left="0"
     fit-margin-right="0"
     fit-margin-bottom="0"
     inkscape:window-width="1920"
     inkscape:window-height="1061"
     inkscape:window-x="0"
     inkscape:window-y="19"
     inkscape:window-maximized="1"
     inkscape:showpageshadow="false">
    <inkscape:grid
       type="xygrid"
       id="grid2991" />
  </sodipodi:namedview>
  <metadata
     id="metadata3113">
    <rdf:RDF>
      <cc:Work
         rdf:about="">
        <dc:format>image/svg+xml</dc:format>
        <dc:type
           rdf:resource="http://purl.org/dc/dcmitype/StillImage" />
        <dc:title></dc:title>
        <dc:creator>
          <cc:Agent>
            <dc:title>Malcer</dc:title>
          </cc:Agent>
        </dc:creator>
        <dc:description>Icons for Caledonia plasma theme.</dc:description>
      </cc:Work>
    </rdf:RDF>
  </metadata>
  <g
     id="layer1"
     inkscape:label="Layer 1"
     inkscape:groupmode="layer"
     transform="translate(4.0343473,-4.3002941)">
    <g
       id="video-display"
       transform="matrix(0.6875,0,0,0.6875,-4.0343473,4.3002941)">
      <rect
         style="fill:#384242;fill-opacity:0;fill-rule:nonzero;stroke:none;stroke-opacity:1"
         id="rect4221-1"
         width="32"
         height="32"
         x="0"
         y="3.5527137e-15" />
      <g
         transform="translate(38.80204,-1.9062123)"
         id="g4197">
        <rect
           style="opacity:1;fill:#000000;fill-opacity:0.11764706;stroke:none;stroke-width:2.20000005;stroke-linecap:round;stroke-linejoin:round;stroke-miterlimit:4;stroke-dasharray:none;stroke-opacity:1"
           id="rect4195"
           width="30"
           height="20"
           x="-37.875"
           y="5.5624995" />
        <g
           transform="matrix(2.2857142,0,0,2.2857142,-41.087754,-2369.2073)"
           id="layer1-0"
           inkscape:label="Capa 1"
           style="fill:#ffffff;fill-opacity:1">
          <g
             id="g4644"
             transform="translate(0,39.500035)"
             style="fill:#ffffff;fill-opacity:1">
            <g
               style="fill:#ffffff;fill-opacity:1"
               transform="matrix(0.02287578,0,0,0.02287578,0.99999988,997.8622)"
               id="g3">
              <path
                 style="fill:#566060;fill-opacity:1"
                 inkscape:connector-curvature="0"
                 id="path5"
                 d="m 578.766,51.487 0,-0.895 -2.996,0 -539.84,0 -2.996,0 0,0.895 C 15.272,52.701 2.095,66.753 0,83.808 l 0,3.002 0,355.724 c 0,6.898 1.795,12.712 4.791,17.949 6.893,12.137 17.068,18.269 31.14,18.269 l 197.012,0 0,49.695 -37.425,0 c -9.281,0 -16.467,7.218 -16.467,16.48 0,9.262 7.186,16.479 16.467,16.479 l 220.666,0 c 9.281,0 16.768,-7.218 16.768,-16.479 0,-9.263 -7.486,-16.48 -16.768,-16.48 l -37.425,0 0,-49.695 197.011,0 c 14.078,0 24.343,-6.132 31.14,-18.269 3.085,-5.493 5.091,-11.37 5.091,-17.949 l 0,-355.723 0,-3.002 C 609.905,66.753 595.833,52.701 578.766,51.487 Z m -1.90978,39.140643 0,348.076207 c 0,2.108 -0.895,3.002 -2.996,3.002 l -534.11139,0 c -2.095,0 -2.996,-0.894 -2.996,-3.002 l 0,-348.076207 0,-3.002 540.10239,0 0,3.002 z"
                 sodipodi:nodetypes="ccccccccscsccssssssccscsccccssssccccc" />
            </g>
          </g>
        </g>
      </g>
    </g>
  </g>
</svg>
